<svg xmlns="http://www.w3.org/2000/svg" viewBox="0 0 425.2 92.89"><defs><style>.cls-1,.cls-2{fill:#231f20;}.cls-2,.cls-3{fill-rule:evenodd;}.cls-3,.cls-4{fill:#ed1c24;}</style></defs><title>Asset 16</title><g id="Layer_2" data-name="Layer 2"><g id="Layer_1-2" data-name="Layer 1"><path class="cls-1" d="M80.16,78.8a3.61,3.61,0,0,0-3.57,2.85l-30.8-.11V43.93a4.29,4.29,0,0,0,.81-5.57L62.71,23a2.25,2.25,0,0,0,1,.25,2.11,2.11,0,1,0-2.19-2.11,2,2,0,0,0,.25,1l-16,15.3a4.71,4.71,0,0,0-6.25,0L3.2,2.92,23,2.77a2.19,2.19,0,0,0,2.08,1.45,2.15,2.15,0,0,0,2.19-2.11A2.15,2.15,0,0,0,25.07,0,2.18,2.18,0,0,0,23,1.49L0,1.66,38.68,38.37a4.22,4.22,0,0,0-.68,2.3,4.29,4.29,0,0,0,.74,2.41H17.29a2.19,2.19,0,0,0-2.07-1.45,2.12,2.12,0,1,0,0,4.23,2.19,2.19,0,0,0,2.07-1.45H40.13a4.64,4.64,0,0,0,2.51.72,4.88,4.88,0,0,0,1.87-.38V82.82l32.08.11a3.62,3.62,0,1,0,3.57-4.13Z"/><polygon class="cls-2" points="85.61 67.18 103.77 33.4 123.96 33.79 120.69 27.5 106.62 27.11 114.98 12.38 125.79 12.38 155.78 67.57 144.15 67.57 131.3 46.36 109.68 46.36 96.63 67.77 85.61 67.18 85.61 67.18"/><polygon class="cls-2" points="395.21 12.38 384.4 12.38 376.04 27.11 390.12 27.5 393.38 33.79 373.19 33.4 355.03 67.18 366.05 67.77 379.1 46.36 400.72 46.36 413.57 67.57 425.2 67.57 395.21 12.38"/><path class="cls-2" d="M153.94,12.38l11.22.19q-.21,17.78-.41,35.56c.07,4.15,1.5,7.17,5.92,7.66l37.53.39V68l-41.2-.2c-9.18-1.51-13.2-6.75-13.67-14.54l.61-40.85Z"/><path class="cls-2" d="M213.5,12.77V24.36h57.93v11l-58.34.39.41,32,11.22-.2V46.36H270.2c7.35.13,12.65-2.36,13.47-10.61q.19-6.18.4-12.37c-.58-7-6.08-10.58-12.64-10.81l-57.93.2Z"/><polygon class="cls-2" points="288.97 12.97 300.19 12.97 300.19 35.07 341.89 35.07 341.89 12.97 353.11 12.97 353.11 67.97 341.89 67.97 341.89 45.86 300.19 45.86 300.19 67.97 288.97 67.97 288.97 12.97 288.97 12.97"/><rect class="cls-1" x="85.61" y="73.43" width="339.58" height="1.29"/><polygon class="cls-3" points="8.66 73.82 35.87 48.19 8.95 48.05 8.66 73.82 8.66 73.82"/><path class="cls-3" d="M9.25,78,36.91,51.88a13.2,13.2,0,0,0,4.58,1.21V78.52L9.25,78Z"/><polygon class="cls-3" points="48.73 50.75 74.02 74.96 48.29 74.96 48.73 50.75 48.73 50.75"/><path class="cls-3" d="M53.32,48.48l.26-1.21a12.16,12.16,0,0,0,1.55-3.49L81,44.06l.15,30.62-27.8-26.2Z"/><path class="cls-3" d="M4.07,39.22H29.51l.41-1a11.93,11.93,0,0,1,1.48-3.72l0-.08L3.78,8.17l.29,31.05Z"/><polygon class="cls-3" points="11.91 6.46 37.79 31.39 37.79 6.32 11.91 6.46 11.91 6.46"/><path class="cls-3" d="M41.78,6.47,41.49,28.3c.36,0,.73-.05,1.1-.05a13.29,13.29,0,0,1,5,1l25.1-22.9-30.91.15Z"/><polygon class="cls-3" points="80.38 11.88 51.24 39.36 80.23 39.65 80.38 11.88 80.38 11.88"/><path class="cls-4" d="M373.49,83.13a3.56,3.56,0,0,1,2.62,1.23l.09.1,1.38-1.31-.08-.09a5.2,5.2,0,0,0-4-1.83,5.12,5.12,0,0,0-2.48.64,4.63,4.63,0,0,0-1.77,1.71,4.77,4.77,0,0,0-.62,2.43,4.64,4.64,0,0,0,4.85,4.81,5.31,5.31,0,0,0,2.05-.38,6.27,6.27,0,0,0,1.9-1.36l.09-.09-1.33-1.4-.1.1a4.73,4.73,0,0,1-1.3,1,3.16,3.16,0,0,1-1.29.26,3.07,3.07,0,0,1-1.51-.37,2.71,2.71,0,0,1-1-1A3.13,3.13,0,0,1,370.6,86a2.8,2.8,0,0,1,.83-2.05A2.84,2.84,0,0,1,373.49,83.13Z"/><rect class="cls-4" x="363.78" y="81.45" width="1.95" height="9.15"/><path class="cls-4" d="M360.22,85.71a2.67,2.67,0,0,0,.44-1.55,2.88,2.88,0,0,0-.4-1.51,2.34,2.34,0,0,0-1.07-.93,6.1,6.1,0,0,0-2.15-.27h-1.93V90.6h1.95V86.92L359,90.6h2.15l-2.13-4A2.68,2.68,0,0,0,360.22,85.71Zm-1.46-1.57a.67.67,0,0,1-.25.6,2.08,2.08,0,0,1-1.05.19h-.4V83.36h.33a2.86,2.86,0,0,1,.9.09.71.71,0,0,1,.47.69Z"/><path class="cls-4" d="M181.31,81.45h-1.88l-3.54,9.15h2l.71-1.83h3.46l.69,1.83h2l-3.48-9.06Zm.06,5.42h-2l1-2.56Z"/><polygon class="cls-4" points="143.9 83.39 145.47 83.39 145.47 90.6 147.46 90.6 147.46 83.39 149.07 83.39 149.07 81.45 143.9 81.45 143.9 83.39"/><path class="cls-4" d="M397.46,87.08a3.61,3.61,0,0,0-.76-1c-.14-.14-.53-.48-1.18-1a11.24,11.24,0,0,1-1.23-1.12.54.54,0,0,1-.12-.34.41.41,0,0,1,.17-.3.66.66,0,0,1,.45-.14A1.67,1.67,0,0,1,396,84l.08.12,1.47-1.29-.09-.1a4.79,4.79,0,0,0-1.34-1.16,3,3,0,0,0-1.33-.32,2.55,2.55,0,0,0-1.83.7,2.24,2.24,0,0,0-.74,1.68,2.48,2.48,0,0,0,.44,1.35,10.18,10.18,0,0,0,1.91,1.86,5.89,5.89,0,0,1,1,.9.9.9,0,0,1,.2.52.64.64,0,0,1-.25.49,1,1,0,0,1-.65.22c-.5,0-1-.37-1.36-1.11l-.06-.12-1.66,1,.06.11a4,4,0,0,0,1.25,1.52,3.1,3.1,0,0,0,1.73.48,2.89,2.89,0,0,0,2.07-.75,2.51,2.51,0,0,0,.79-1.9A2.66,2.66,0,0,0,397.46,87.08Z"/><path class="cls-4" d="M200.82,81a2,2,0,0,1,1-.29,1.69,1.69,0,0,1,.35,0,3.16,3.16,0,0,1,.54.14,3.47,3.47,0,0,0,1,.17,2.41,2.41,0,0,0,1.56-.69l.09-.08-.76-1.14-.11.06a2,2,0,0,1-1,.29,3.17,3.17,0,0,1-.74-.12,4.45,4.45,0,0,0-1-.21,2.69,2.69,0,0,0-1.64.62l-.1.08.8,1.21Z"/><path class="cls-4" d="M128.88,81.45H127l-3.54,9.15h2l.71-1.83h3.46l.69,1.83h2.05l-3.49-9.06Zm.06,5.42h-2l1-2.56Z"/><path class="cls-4" d="M156,81.23a4.77,4.77,0,0,0-4.13,2.38,4.87,4.87,0,0,0,.72,5.79A4.59,4.59,0,0,0,156,90.82a4.53,4.53,0,0,0,3.34-1.38,4.87,4.87,0,0,0,0-6.81A4.53,4.53,0,0,0,156,81.23ZM158.77,86a2.79,2.79,0,0,1-.81,2,2.62,2.62,0,0,1-1.94.83,2.76,2.76,0,0,1-1.8-.64,2.69,2.69,0,0,1-1-2.22A2.83,2.83,0,0,1,154,84,2.74,2.74,0,0,1,158,84,2.86,2.86,0,0,1,158.77,86Z"/><path class="cls-4" d="M384.79,81.23a4.68,4.68,0,0,0-2.39.64,4.76,4.76,0,0,0-1.74,1.74A4.82,4.82,0,0,0,380,86a4.75,4.75,0,0,0,1.36,3.38,4.78,4.78,0,0,0,6.76,0,4.89,4.89,0,0,0,0-6.81A4.57,4.57,0,0,0,384.79,81.23ZM387.55,86a2.75,2.75,0,0,1-.81,2,2.6,2.6,0,0,1-1.94.83,2.73,2.73,0,0,1-1.79-.64,2.67,2.67,0,0,1-1-2.22,2.83,2.83,0,0,1,.8-2.09,2.75,2.75,0,0,1,3.94,0A2.85,2.85,0,0,1,387.55,86Z"/><path class="cls-4" d="M139.37,87.12a3.27,3.27,0,0,1-.12,1.16.91.91,0,0,1-.39.46,1.33,1.33,0,0,1-.7.18,1.23,1.23,0,0,1-.65-.16.93.93,0,0,1-.38-.43,2.9,2.9,0,0,1-.12-1V81.45h-2v5.43a6,6,0,0,0,.32,2.31,2.75,2.75,0,0,0,1.08,1.17,3.22,3.22,0,0,0,1.75.46,3.48,3.48,0,0,0,1.34-.24,2.79,2.79,0,0,0,1-.75,2.91,2.91,0,0,0,.61-1,8.06,8.06,0,0,0,.15-1.9V81.45h-2Z"/><polygon class="cls-4" points="170.48 81.45 168.5 87.36 166.53 81.45 164.68 81.45 163.1 90.6 165.02 90.6 165.92 85.4 167.65 90.6 169.34 90.6 171.08 85.41 171.96 90.6 173.86 90.6 172.33 81.45 170.48 81.45"/><polygon class="cls-4" points="237.52 90.6 242.64 90.6 242.64 88.67 239.47 88.67 239.47 86.61 242.64 86.61 242.64 84.7 239.47 84.7 239.47 83.38 242.64 83.38 242.64 81.45 237.52 81.45 237.52 90.6"/><rect class="cls-4" x="258.91" y="81.45" width="1.95" height="9.15"/><path class="cls-4" d="M255,86.05c-.14-.14-.53-.48-1.19-1a10.74,10.74,0,0,1-1.22-1.12.54.54,0,0,1-.12-.34.39.39,0,0,1,.16-.3.68.68,0,0,1,.46-.14c.41,0,.82.29,1.23.86l.09.12,1.46-1.29-.08-.1a4.81,4.81,0,0,0-1.35-1.16,2.92,2.92,0,0,0-1.32-.32,2.54,2.54,0,0,0-1.83.7,2.21,2.21,0,0,0-.75,1.68A2.42,2.42,0,0,0,251,85a9.73,9.73,0,0,0,1.9,1.86,6.6,6.6,0,0,1,1,.9.86.86,0,0,1,.19.52.64.64,0,0,1-.25.49,1,1,0,0,1-.64.22c-.5,0-1-.37-1.36-1.11l-.07-.12-1.65,1,.05.11a4,4,0,0,0,1.26,1.52,3.1,3.1,0,0,0,1.73.48,2.89,2.89,0,0,0,2.06-.75,2.51,2.51,0,0,0,.8-1.9,2.66,2.66,0,0,0-.23-1.09A3.76,3.76,0,0,0,255,86.05Z"/><path class="cls-4" d="M268.33,86.05c-.14-.14-.51-.47-1.18-1a12.38,12.38,0,0,1-1.23-1.12.54.54,0,0,1-.12-.34.38.38,0,0,1,.17-.3.66.66,0,0,1,.45-.14,1.67,1.67,0,0,1,1.24.86l.08.12,1.47-1.29-.09-.1a4.79,4.79,0,0,0-1.34-1.16,3,3,0,0,0-1.33-.32,2.55,2.55,0,0,0-1.83.7,2.24,2.24,0,0,0-.74,1.68,2.48,2.48,0,0,0,.44,1.35,10.18,10.18,0,0,0,1.91,1.86,5.89,5.89,0,0,1,1,.9.87.87,0,0,1,.2.52.64.64,0,0,1-.25.49,1,1,0,0,1-.65.22c-.5,0-1-.37-1.36-1.11l-.07-.12-1.65,1,.06.11a3.86,3.86,0,0,0,1.25,1.52,3.1,3.1,0,0,0,1.73.48,2.91,2.91,0,0,0,2.07-.75,2.51,2.51,0,0,0,.79-1.9,2.66,2.66,0,0,0-.22-1.09A3.82,3.82,0,0,0,268.33,86.05Z"/><polygon class="cls-4" points="334.67 81.45 332.72 81.45 332.72 90.6 337.16 90.6 337.16 88.72 334.67 88.72 334.67 81.45"/><polygon class="cls-4" points="324.58 90.6 329.7 90.6 329.7 88.67 326.54 88.67 326.54 86.61 329.7 86.61 329.7 84.7 326.54 84.7 326.54 83.38 329.7 83.38 329.7 81.45 324.58 81.45 324.58 90.6"/><path class="cls-4" d="M305,81.45h-1.89l-3.47,9-.07.18h2.05l.71-1.83h3.45l.7,1.83h2L305,81.54Zm.06,5.42h-2l1-2.56Z"/><path class="cls-4" d="M315.33,86.05c-.14-.14-.53-.48-1.19-1a10.74,10.74,0,0,1-1.22-1.12.54.54,0,0,1-.12-.34.39.39,0,0,1,.16-.3.68.68,0,0,1,.46-.14c.41,0,.82.29,1.23.86l.09.12,1.46-1.29-.08-.1a5,5,0,0,0-1.35-1.16,2.93,2.93,0,0,0-1.33-.32,2.53,2.53,0,0,0-1.82.7,2.21,2.21,0,0,0-.75,1.68,2.42,2.42,0,0,0,.45,1.35,9.73,9.73,0,0,0,1.9,1.86,6.09,6.09,0,0,1,1,.9.88.88,0,0,1,.19.52.64.64,0,0,1-.25.49.92.92,0,0,1-.64.22c-.51,0-1-.37-1.36-1.11l-.07-.12-1.65,1,0,.11a4,4,0,0,0,1.26,1.52,3.09,3.09,0,0,0,1.72.48,2.89,2.89,0,0,0,2.07-.75,2.51,2.51,0,0,0,.8-1.9,2.66,2.66,0,0,0-.23-1.09A3.76,3.76,0,0,0,315.33,86.05Z"/><polygon class="cls-4" points="279.32 90.6 284.44 90.6 284.44 88.67 281.27 88.67 281.27 86.61 284.44 86.61 284.44 84.7 281.27 84.7 281.27 83.38 284.44 83.38 284.44 81.45 279.32 81.45 279.32 90.6"/><polygon class="cls-4" points="271.52 83.39 273.09 83.39 273.09 90.6 275.08 90.6 275.08 83.39 276.7 83.39 276.7 81.45 271.52 81.45 271.52 83.39"/><polygon class="cls-4" points="295.99 81.45 294.15 81.45 292.17 87.36 290.23 81.54 290.19 81.45 288.35 81.45 286.8 90.44 286.77 90.6 288.69 90.6 289.58 85.4 291.29 90.51 291.32 90.6 293.01 90.6 294.75 85.41 295.63 90.6 297.53 90.6 296.01 81.56 295.99 81.45"/><polygon class="cls-4" points="347.2 83.39 348.78 83.39 348.78 90.6 350.76 90.6 350.76 83.39 352.38 83.39 352.38 81.45 347.2 81.45 347.2 83.39"/><path class="cls-4" d="M203.57,81.45h-1.89l-3.54,9.15h2.05l.71-1.83h3.45l.7,1.83h2l-3.49-9.06Zm.06,5.42h-2l1-2.56Z"/><path class="cls-4" d="M191.94,83.13a3.56,3.56,0,0,1,2.63,1.23l.09.1L196,83.15l-.08-.09a5.2,5.2,0,0,0-4-1.83,5.09,5.09,0,0,0-2.48.64,4.63,4.63,0,0,0-1.77,1.71,5.09,5.09,0,0,0,.73,5.89,4.58,4.58,0,0,0,2.31,1.24l-.15.51h.52a.48.48,0,0,1,.28.06.17.17,0,0,1,.06.14.27.27,0,0,1-.09.21.64.64,0,0,1-.38.09,3,3,0,0,1-.82-.13l-.13,0-.29,1,.12,0a4.07,4.07,0,0,0,1.39.29,1.88,1.88,0,0,0,1.23-.38,1.21,1.21,0,0,0,.45-.94,1,1,0,0,0-.26-.67l-.12-.11a4.77,4.77,0,0,0,1.42-.35,6.27,6.27,0,0,0,1.9-1.36L196,89l-1.33-1.4-.1.1a4.73,4.73,0,0,1-1.3,1,3.21,3.21,0,0,1-1.3.26,3,3,0,0,1-1.5-.37,2.64,2.64,0,0,1-1-1,3,3,0,0,1-.38-1.51,2.85,2.85,0,0,1,2.89-2.88Z"/><path class="cls-4" d="M214.13,81.23A4.77,4.77,0,0,0,210,83.61a4.87,4.87,0,0,0,.72,5.79,4.78,4.78,0,0,0,6.76,0,4.87,4.87,0,0,0,0-6.81A4.53,4.53,0,0,0,214.13,81.23ZM216.88,86a2.78,2.78,0,0,1-.8,2,2.64,2.64,0,0,1-2,.83,2.73,2.73,0,0,1-1.79-.64,2.69,2.69,0,0,1-1-2.22,2.83,2.83,0,0,1,.8-2.09,2.74,2.74,0,0,1,3.93,0A2.85,2.85,0,0,1,216.88,86Z"/><polygon class="cls-4" points="341.12 81.03 342.59 81.03 345.05 78.4 342.72 78.4 341.12 81.03"/><polygon class="cls-4" points="339.92 90.6 345.04 90.6 345.04 88.67 341.87 88.67 341.87 86.61 345.04 86.61 345.04 84.7 341.87 84.7 341.87 83.38 345.04 83.38 345.04 81.45 339.92 81.45 339.92 90.6"/><path class="cls-4" d="M232.21,82a6.76,6.76,0,0,0-2.94-.5h-2.14V90.6h2.17a9.28,9.28,0,0,0,2.46-.22,3.42,3.42,0,0,0,1.35-.82,4,4,0,0,0,1-1.47,5.35,5.35,0,0,0,.35-1.94,5.18,5.18,0,0,0-.63-2.59A3.82,3.82,0,0,0,232.21,82Zm-.06,5.65a2,2,0,0,1-.8.84,4,4,0,0,1-1.62.25h-.65V83.35h.44a3,3,0,0,1,2.19.66,2.82,2.82,0,0,1,.75,2.1A3.19,3.19,0,0,1,232.15,87.6Z"/></g></g></svg>