<svg xmlns="http://www.w3.org/2000/svg" viewBox="0 0 425.2 85.8"><defs><style>.cls-1,.cls-2{fill:#fff;}.cls-2,.cls-3{fill-rule:evenodd;}.cls-3{fill:#ed1c24;}</style></defs><title>Asset 25</title><g id="Layer_2" data-name="Layer 2"><g id="Layer_1-2" data-name="Layer 1"><path class="cls-1" d="M80.16,78.8a3.61,3.61,0,0,0-3.57,2.85l-30.8-.11V43.93a4.29,4.29,0,0,0,.81-5.57L62.71,23a2.25,2.25,0,0,0,1,.25,2.11,2.11,0,1,0-2.19-2.11,2,2,0,0,0,.25,1l-16,15.3a4.71,4.71,0,0,0-6.25,0L3.2,2.92,23,2.77a2.19,2.19,0,0,0,2.08,1.45,2.15,2.15,0,0,0,2.19-2.11A2.15,2.15,0,0,0,25.07,0,2.18,2.18,0,0,0,23,1.49L0,1.66,38.68,38.37a4.22,4.22,0,0,0-.68,2.3,4.29,4.29,0,0,0,.74,2.41H17.29a2.19,2.19,0,0,0-2.07-1.45,2.12,2.12,0,1,0,0,4.23,2.19,2.19,0,0,0,2.07-1.45H40.13a4.64,4.64,0,0,0,2.51.72,4.88,4.88,0,0,0,1.87-.38V82.82l32.08.11a3.62,3.62,0,1,0,3.57-4.13Z"/><polygon class="cls-2" points="85.61 67.18 103.77 33.4 123.96 33.79 120.69 27.5 106.62 27.11 114.98 12.38 125.79 12.38 155.78 67.57 144.15 67.57 131.3 46.36 109.68 46.36 96.63 67.77 85.61 67.18 85.61 67.18"/><polygon class="cls-2" points="395.21 12.38 384.4 12.38 376.04 27.11 390.12 27.5 393.38 33.79 373.19 33.4 355.03 67.18 366.05 67.77 379.1 46.36 400.72 46.36 413.57 67.57 425.2 67.57 395.21 12.38"/><path class="cls-2" d="M153.94,12.38l11.22.19q-.21,17.78-.41,35.56c.07,4.15,1.5,7.17,5.92,7.66l37.53.39V68l-41.2-.2c-9.18-1.51-13.2-6.75-13.67-14.54l.61-40.85Z"/><path class="cls-2" d="M213.5,12.77V24.36h57.93v11l-58.34.39.41,32,11.22-.2V46.36H270.2c7.35.13,12.65-2.36,13.47-10.61q.19-6.18.4-12.37c-.58-7-6.08-10.58-12.64-10.81l-57.93.2Z"/><polygon class="cls-2" points="288.97 12.97 300.19 12.97 300.19 35.07 341.89 35.07 341.89 12.97 353.11 12.97 353.11 67.97 341.89 67.97 341.89 45.86 300.19 45.86 300.19 67.97 288.97 67.97 288.97 12.97 288.97 12.97"/><polygon class="cls-3" points="8.66 73.82 35.87 48.19 8.95 48.05 8.66 73.82 8.66 73.82"/><path class="cls-3" d="M9.25,78,36.91,51.88a13.2,13.2,0,0,0,4.58,1.21V78.52L9.25,78Z"/><polygon class="cls-3" points="48.73 50.75 74.02 74.96 48.29 74.96 48.73 50.75 48.73 50.75"/><path class="cls-3" d="M53.32,48.48l.26-1.21a12.16,12.16,0,0,0,1.55-3.49L81,44.06l.15,30.62-27.8-26.2Z"/><path class="cls-3" d="M4.07,39.22H29.51l.41-1a11.93,11.93,0,0,1,1.48-3.72l0-.08L3.78,8.17l.29,31.05Z"/><polygon class="cls-3" points="11.91 6.46 37.79 31.39 37.79 6.32 11.91 6.46 11.91 6.46"/><path class="cls-3" d="M41.78,6.47,41.49,28.3c.36,0,.73-.05,1.1-.05a13.29,13.29,0,0,1,5,1l25.1-22.9-30.91.15Z"/><polygon class="cls-3" points="80.38 11.88 51.24 39.36 80.23 39.65 80.38 11.88 80.38 11.88"/></g></g></svg>